<?xml version="1.0" encoding="UTF-8"?>
<svg width="28px" height="16px" viewBox="0 0 28 16" version="1.1" xmlns="http://www.w3.org/2000/svg" xmlns:xlink="http://www.w3.org/1999/xlink">
    <title>Icons/Misc/language_usa@3x</title>
    <g id="Icons/Misc/language_usa" stroke="none" stroke-width="1" fill="none" fill-rule="evenodd">
        <g id="united-states-of-america" fill-rule="nonzero">
            <rect id="Rectangle" fill="#F0F0F0" x="0" y="0.0154853801" width="28" height="15.9689825"></rect>
            <g id="Group" transform="translate(0.000000, 1.964912)" fill="#D80027">
                <rect id="Rectangle" x="0" y="0.046502924" width="28" height="1.99592982"></rect>
                <rect id="Rectangle" x="0" y="4.03887719" width="28" height="1.99592982"></rect>
                <rect id="Rectangle" x="0" y="8.03073684" width="28" height="1.99592982"></rect>
                <rect id="Rectangle" x="0" y="12.0231111" width="28" height="1.99592982"></rect>
            </g>
            <rect id="Rectangle" fill="#2E52B2" x="0" y="0.0154853801" width="12.2573099" height="8.59869006"></rect>
            <g id="Group" transform="translate(1.244883, 1.356725)" fill="#F0F0F0">
                <polygon id="Path" points="3.53460599 2.18123977 3.33719627 2.77464327 2.69866703 2.77464327 3.21534137 3.14119298 3.01793165 3.73454971 3.53460599 3.368 4.05094518 3.73454971 3.85358333 3.14119298 4.37025768 2.77464327 3.73168056 2.77464327"></polygon>
                <polygon id="Path" points="3.73168056 4.91602339 3.53460599 4.32266667 3.33719627 4.91602339 2.69866703 4.91602339 3.21534137 5.28261988 3.01793165 5.87597661 3.53460599 5.50938012 4.05094518 5.87597661 3.85358333 5.28261988 4.37025768 4.91602339"></polygon>
                <polygon id="Path" points="1.03310928 4.91602339 0.835986842 4.32266667 0.63857712 4.91602339 4.7880117e-05 4.91602339 0.516722222 5.28261988 0.3193125 5.87597661 0.835986842 5.50938012 1.3523739 5.87597661 1.15501206 5.28261988 1.67159064 4.91602339"></polygon>
                <polygon id="Path" points="0.835986842 2.18123977 0.63857712 2.77464327 4.7880117e-05 2.77464327 0.516722222 3.14119298 0.3193125 3.73454971 0.835986842 3.368 1.3523739 3.73454971 1.15501206 3.14119298 1.67159064 2.77464327 1.03310928 2.77464327"></polygon>
                <polygon id="Path" points="3.53460599 0.0397660819 3.33719627 0.633216374 2.69866703 0.633216374 3.21534137 0.999812865 3.01793165 1.59316959 3.53460599 1.2265731 4.05094518 1.59316959 3.85358333 0.999812865 4.37025768 0.633216374 3.73168056 0.633216374"></polygon>
                <polygon id="Path" points="0.835986842 0.0397660819 0.63857712 0.633216374 4.7880117e-05 0.633216374 0.516722222 0.999812865 0.3193125 1.59316959 0.835986842 1.2265731 1.3523739 1.59316959 1.15501206 0.999812865 1.67159064 0.633216374 1.03310928 0.633216374"></polygon>
                <polygon id="Path" points="6.23317727 2.18123977 6.03581542 2.77464327 5.39728618 2.77464327 5.91391265 3.14119298 5.71659868 3.73454971 6.23317727 3.368 6.74961221 3.73454971 6.55220249 3.14119298 7.06887683 2.77464327 6.43034759 2.77464327"></polygon>
                <polygon id="Path" points="6.43034759 4.91602339 6.23317727 4.32266667 6.03581542 4.91602339 5.39728618 4.91602339 5.91391265 5.28261988 5.71659868 5.87597661 6.23317727 5.50938012 6.74961221 5.87597661 6.55220249 5.28261988 7.06887683 4.91602339"></polygon>
                <polygon id="Path" points="9.12896674 4.91602339 8.9318443 4.32266667 8.73443458 4.91602339 8.09595322 4.91602339 8.6125318 5.28261988 8.41516996 5.87597661 8.9318443 5.50938012 9.44823136 5.87597661 9.25082164 5.28261988 9.76749598 4.91602339"></polygon>
                <polygon id="Path" points="8.9318443 2.18123977 8.73443458 2.77464327 8.09595322 2.77464327 8.6125318 3.14119298 8.41516996 3.73454971 8.9318443 3.368 9.44823136 3.73454971 9.25082164 3.14119298 9.76749598 2.77464327 9.12896674 2.77464327"></polygon>
                <polygon id="Path" points="6.23317727 0.0397660819 6.03581542 0.633216374 5.39728618 0.633216374 5.91391265 0.999812865 5.71659868 1.59316959 6.23317727 1.2265731 6.74961221 1.59316959 6.55220249 0.999812865 7.06887683 0.633216374 6.43034759 0.633216374"></polygon>
                <polygon id="Path" points="8.9318443 0.0397660819 8.73443458 0.633216374 8.09595322 0.633216374 8.6125318 0.999812865 8.41516996 1.59316959 8.9318443 1.2265731 9.44823136 1.59316959 9.25082164 0.999812865 9.76749598 0.633216374 9.12896674 0.633216374"></polygon>
            </g>
        </g>
    </g>
</svg>