<svg xmlns="http://www.w3.org/2000/svg" viewBox="0 0 416.37 117.08"><defs><style>.cls-1,.cls-2{fill:#3c1f75;}.cls-2{fill-rule:evenodd;}</style></defs><g id="Layer_2" data-name="Layer 2"><g id="Layer_1-2" data-name="Layer 1"><rect class="cls-1" x="252.88" y="5.06" width="34.37" height="106.97"/><path class="cls-2" d="M154.2,112h52.08l38.93-107h-38l-35.89,98.63L135.44,5.06H115.27Z"/><path class="cls-2" d="M357.83,0a58.54,58.54,0,1,0,58.54,58.54A58.54,58.54,0,0,0,357.83,0Zm0,86.61c-29.81,0-40.77-28.07-40.77-28.07s8.48-28.07,40.77-28.07c29.7,0,40.76,28.07,40.76,28.07S385.05,86.61,357.83,86.61Z"/><path class="cls-2" d="M58.54,0a58.54,58.54,0,1,0,58.54,58.54A58.54,58.54,0,0,0,58.54,0Zm0,86.61c-29.8,0-40.76-28.07-40.76-28.07s8.48-28.07,40.76-28.07c29.71,0,40.77,28.07,40.77,28.07S85.77,86.61,58.54,86.61Z"/></g></g></svg>