<?xml version="1.0" encoding="UTF-8"?>
<svg width="620px" height="572px" viewBox="0 0 620 572" version="1.1" xmlns="http://www.w3.org/2000/svg" xmlns:xlink="http://www.w3.org/1999/xlink">
    <title>Shape Copy 4</title>
    <g id="RT-fresh-screens" stroke="none" stroke-width="1" fill="none" fill-rule="evenodd" opacity="0.359999985">
        <path d="M309.996405,0 C481.206155,0 620,128.048515 620,285.996684 C620,443.951485 481.206155,572 309.996405,572 C138.786656,572 0,443.951485 0,285.996684 C0,128.048515 138.786656,0 309.996405,0 Z M319.987954,135.950704 C159.309568,135.950704 107.807503,257.80553 100.71182,276.936738 L99.8389694,279.407992 L101.304987,282.696517 C111.304204,304.119607 173.50501,422.957746 319.987954,422.957746 C455.506003,422.957746 528.231706,301.070577 538.802127,281.958669 L540.128824,279.49352 L539.478629,277.998466 C532.62088,262.747349 470.796873,135.950704 319.987954,135.950704 Z" id="Shape-Copy-4" fill="rgba(0, 0, 0, 0.3)"></path>
    </g>
</svg>
